Complete name : Spartacus.Blood.and.Sand.S01E11.HDTV.XviD.Old Wounds-Ipolitan.avi

      Format : AVI
      Format/Info : Audio Video Interleave
      File size : 593 MiB
      Duration : 50mn 38s
      Overall bit rate : 1 636 Kbps
      Writing application : MEncoder Sherpya-SVN-r30075-4.2.5
      Writing library : MPlayer
   Video
      Format : MPEG-4 Visual
      Format profile : Simple@L3
      Format settings, BVOP : No
      Format settings, QPel : No
      Format settings, GMC : No warppoints
      Format settings, Matrix : Default
      Codec ID : XVID
      Codec ID/Hint : XviD
      Duration : 50mn 38s
      Bit rate : 1 500 Kbps
      Width : 1 280 pixels
      Height : 720 pixels
      Display aspect ratio : 16/9
      Frame rate : 23.976 fps
      Resolution : 24 bits
      Colorimetry : 4:2:0
      Scan type : Progressive
      Bits/(Pixel*Frame) : 0.068
      Stream size : 543 MiB (92%)
      Writing library : XviD 50
   Audio
      Format : MPEG Audio
      Format version : Version 1
      Format profile : Layer 3
      Codec ID : 55
      Codec ID/Hint : MP3
      Duration : 50mn 38s
      Bit rate mode : Variable
      Bit rate : 123 Kbps
      Channel(s) : 2 channels
      Sampling rate : 44.1 KHz
      Resolution : 16 bits
      Stream size : 44.7 MiB (8%)
      Alignment : Aligned on interleaves
      Interleave, duration : 26 ms (0.63 video frame)
      Interleave, preload duration : 456 ms


IPOLITAN - T h e  n e w   w o r l d   o f   k n o w l e d g e

ipolitan.wordpress com


Seed and enjoy !